<?xml version="1.0" encoding="utf-8"?>
<!-- Generator: Adobe Illustrator 18.1.1, SVG Export Plug-In . SVG Version: 6.00 Build 0)  -->
<svg version="1.1" id="Layer_1" xmlns="http://www.w3.org/2000/svg" xmlns:xlink="http://www.w3.org/1999/xlink" x="0px" y="0px"
	 width="16px" height="16px" viewBox="0 0 16 16" enable-background="new 0 0 16 16" xml:space="preserve">
<g>
	<g>
		<path fill-rule="evenodd" clip-rule="evenodd" fill="#FFFFFF" d="M9,7H7v2h2V7z M12,7h-2v2h2V7z M5,0H3v2h2V0z M6,7H4v2h2V7z
			 M6,10H4v2h2V10z M9,10H7v2h2V10z M15,0h-1v3h-4V0H6v3H2V0H1C0.4,0,0,0.4,0,1v14c0,0.6,0.4,1,1,1h14c0.6,0,1-0.4,1-1V1
			C16,0.4,15.6,0,15,0z M14,14H2V5h12V14z M13,0h-2v2h2V0z M12,10h-2v2h2V10z"/>
	</g>
</g>
</svg>
